<?xml version="1.0" encoding="UTF-8" standalone="no"?>
<!DOCTYPE svg PUBLIC "-//W3C//DTD SVG 1.1//EN" "http://www.w3.org/Graphics/SVG/1.1/DTD/svg11.dtd">
<!-- Создано Microsoft Visio, экспорт SVG network_lab02_part2.svg part 2 -->
<svg xmlns="http://www.w3.org/2000/svg" xmlns:xlink="http://www.w3.org/1999/xlink" xmlns:ev="http://www.w3.org/2001/xml-events"
		width="4.73343in" height="1.84494in" viewBox="0 0 340.807 132.836" xml:space="preserve" color-interpolation-filters="sRGB"
		class="st7">
	<style type="text/css">
	<![CDATA[
		.st1 {stroke:#000000;stroke-linecap:round;stroke-linejoin:round;stroke-width:1}
		.st2 {fill:none;stroke:none;stroke-linecap:round;stroke-linejoin:round;stroke-width:2.25}
		.st3 {fill:none;stroke:none;stroke-linecap:round;stroke-linejoin:round;stroke-width:1.5}
		.st4 {fill:#ffffff;font-family:Segoe UI;font-size:0.974343em;font-weight:bold}
		.st5 {baseline-shift:-33.35%;font-size:0.667em}
		.st6 {fill:#113c52;font-family:Segoe UI;font-size:0.649551em}
		.st7 {fill:none;fill-rule:evenodd;font-size:12px;overflow:visible;stroke-linecap:square;stroke-miterlimit:3}
	]]>
	</style>

	<g>
		<title>part 2</title>
		<g id="shape19-1" transform="translate(64.1044,-89.9911)">
			<title>Динамическая соединительная линия</title>
			<path d="M0 125.75 L201.57 125.75" class="st1"/>
		</g>
		<g id="shape20-4" transform="translate(169.48,-25.2451)">
			<title>Динамическая соединительная линия.630</title>
			<path d="M0 132.84 L99.97 75.12" class="st1"/>
		</g>
		<g id="shape21-7" transform="translate(61.2697,-83.4038)">
			<title>Динамическая соединительная линия.632</title>
			<path d="M0 132.84 L100.27 190.03" class="st1"/>
		</g>
		<g id="shape22-10" transform="translate(133.114,-19.125)">
			<title>Workgroup switch.4</title>
			<rect x="0" y="104.489" width="57.5717" height="28.3465" class="st2"/>
			<svg viewBox="382.02 -563.01 64.992 32" enable-background="new" color-interpolation-filters="sRGB" height="28.3465"
					preserveAspectRatio="none" width="57.5717" x="0" y="104.489">
				<defs>
					<clipPath id="mfid43">
						<rect id="mfid44" x="382.02" y="-563.01" width="64.992" height="32"/>
					</clipPath>
				</defs>
				<g clip-path="url(#mfid43)">
					<g transform="matrix(0.33333, 0, 0, 0.33333, 0, 0)">
						<g stroke-width="2" stroke="#ffffff" fill="#126d99">
							<path d="M1291,-1596 L1291,-1642 L1148,-1642 L1148,-1596 L1291,-1596 Z"/>
							<path d="M1147,-1642 L1205,-1689 L1338,-1689 L1290,-1642 L1147,-1642 Z"/>
							<path d="M1291,-1594 L1338,-1646 L1338,-1689 L1291,-1642 L1291,-1594 Z"/>
						</g>
						<g stroke-width="2.54" stroke="none" fill="#ffffff">
							<path
									d="M1231,-1654 L1228,-1652 L1193,-1652 L1189,-1648 L1179,-1652 L1199,-1658 L1195,-1654 L1231,-1654 Z"/>
							<path
									d="M1259,-1672 L1256,-1669 L1221,-1669 L1217,-1666 L1207,-1670 L1227,-1675 L1223,-1672 L1259,-1672 Z"/>
							<path
									d="M1237,-1660 L1240,-1662 L1276,-1662 L1279,-1666 L1289,-1662 L1270,-1656 L1273,-1660 L1237,-1660 Z"/>
							<path
									d="M1256,-1678 L1259,-1680 L1294,-1680 L1298,-1684 L1308,-1679 L1288,-1674 L1292,-1678 L1256,-1678 Z"/>
						</g>
					</g>
				</g>
			</svg>
			<rect x="0" y="104.489" width="57.5717" height="28.3465" class="st2"/>
		</g>
		<g id="shape23-13" transform="translate(254.026,-71.5659)">
			<title>Workgroup switch.2</title>
			<rect x="0" y="104.489" width="57.5717" height="28.3465" class="st2"/>
			<svg viewBox="382.02 -563.01 64.992 32" enable-background="new" color-interpolation-filters="sRGB" height="28.3465"
					preserveAspectRatio="none" width="57.5717" x="0" y="104.489">
				<defs>
					<clipPath id="mfid45">
						<rect id="mfid46" x="382.02" y="-563.01" width="64.992" height="32"/>
					</clipPath>
				</defs>
				<g clip-path="url(#mfid45)">
					<g transform="matrix(0.33333, 0, 0, 0.33333, 0, 0)">
						<g stroke-width="2" stroke="#ffffff" fill="#126d99">
							<path d="M1291,-1596 L1291,-1642 L1148,-1642 L1148,-1596 L1291,-1596 Z"/>
							<path d="M1147,-1642 L1205,-1689 L1338,-1689 L1290,-1642 L1147,-1642 Z"/>
							<path d="M1291,-1594 L1338,-1646 L1338,-1689 L1291,-1642 L1291,-1594 Z"/>
						</g>
						<g stroke-width="2.54" stroke="none" fill="#ffffff">
							<path
									d="M1231,-1654 L1228,-1652 L1193,-1652 L1189,-1648 L1179,-1652 L1199,-1658 L1195,-1654 L1231,-1654 Z"/>
							<path
									d="M1259,-1672 L1256,-1669 L1221,-1669 L1217,-1666 L1207,-1670 L1227,-1675 L1223,-1672 L1259,-1672 Z"/>
							<path
									d="M1237,-1660 L1240,-1662 L1276,-1662 L1279,-1666 L1289,-1662 L1270,-1656 L1273,-1660 L1237,-1660 Z"/>
							<path
									d="M1256,-1678 L1259,-1680 L1294,-1680 L1298,-1684 L1308,-1679 L1288,-1674 L1292,-1678 L1256,-1678 Z"/>
						</g>
					</g>
				</g>
			</svg>
			<rect x="0" y="104.489" width="57.5717" height="28.3465" class="st2"/>
		</g>
		<g id="shape24-16" transform="translate(21.5846,-71.5659)">
			<title>Workgroup switch</title>
			<rect x="0" y="104.489" width="57.5717" height="28.3465" class="st2"/>
			<svg viewBox="382.02 -563.01 64.992 32" enable-background="new" color-interpolation-filters="sRGB" height="28.3465"
					preserveAspectRatio="none" width="57.5717" x="0" y="104.489">
				<defs>
					<clipPath id="mfid47">
						<rect id="mfid48" x="382.02" y="-563.01" width="64.992" height="32"/>
					</clipPath>
				</defs>
				<g clip-path="url(#mfid47)">
					<g transform="matrix(0.33333, 0, 0, 0.33333, 0, 0)">
						<g stroke-width="2" stroke="#ffffff" fill="#126d99">
							<path d="M1291,-1596 L1291,-1642 L1148,-1642 L1148,-1596 L1291,-1596 Z"/>
							<path d="M1147,-1642 L1205,-1689 L1338,-1689 L1290,-1642 L1147,-1642 Z"/>
							<path d="M1291,-1594 L1338,-1646 L1338,-1689 L1291,-1642 L1291,-1594 Z"/>
						</g>
						<g stroke-width="2.54" stroke="none" fill="#ffffff">
							<path
									d="M1231,-1654 L1228,-1652 L1193,-1652 L1189,-1648 L1179,-1652 L1199,-1658 L1195,-1654 L1231,-1654 Z"/>
							<path
									d="M1259,-1672 L1256,-1669 L1221,-1669 L1217,-1666 L1207,-1670 L1227,-1675 L1223,-1672 L1259,-1672 Z"/>
							<path
									d="M1237,-1660 L1240,-1662 L1276,-1662 L1279,-1666 L1289,-1662 L1270,-1656 L1273,-1660 L1237,-1660 Z"/>
							<path
									d="M1256,-1678 L1259,-1680 L1294,-1680 L1298,-1684 L1308,-1679 L1288,-1674 L1292,-1678 L1256,-1678 Z"/>
						</g>
					</g>
				</g>
			</svg>
			<rect x="0" y="104.489" width="57.5717" height="28.3465" class="st2"/>
		</g>
		<g id="shape25-19" transform="translate(21.5846,-75.8179)">
			<title>Лист.25</title>
			<desc>S1</desc>
			<rect x="0" y="121.497" width="42.5197" height="11.3386" class="st3"/>
			<text x="16.83" y="128.53" class="st4"><tspan class="st5">S1</tspan></text>		</g>
		<g id="shape26-23" transform="translate(133.114,-23.377)">
			<title>Лист.26</title>
			<desc>S2</desc>
			<rect x="0" y="121.497" width="42.5197" height="11.3386" class="st3"/>
			<text x="16.83" y="128.53" class="st4"><tspan class="st5">S2</tspan></text>		</g>
		<g id="shape27-27" transform="translate(254.026,-75.8179)">
			<title>Лист.27</title>
			<desc>S3</desc>
			<rect x="0" y="121.497" width="42.5197" height="11.3386" class="st3"/>
			<text x="16.83" y="128.53" class="st4"><tspan class="st5">S3</tspan></text>		</g>
		<g id="shape28-31" transform="translate(18.75,-105.582)">
			<title>Лист.28</title>
			<desc>S1 MAC: 00E0.A3A7.6C5B</desc>
			<rect x="0" y="124.332" width="68.0315" height="8.50394" class="st3"/>
			<text x="4.92" y="129.49" class="st6"><tspan class="st5">S1 MAC: 00E0.A3A7.6C5B</tspan></text>		</g>
		<g id="shape29-35" transform="translate(133.114,-51.7234)">
			<title>Лист.29</title>
			<desc>S2 MAC: 0001.C950.9198</desc>
			<rect x="0" y="124.332" width="68.0315" height="8.50394" class="st3"/>
			<text x="5.47" y="129.49" class="st6"><tspan class="st5">S2 MAC: 0001.C950.9198</tspan></text>		</g>
		<g id="shape30-39" transform="translate(254.026,-104.164)">
			<title>Лист.30</title>
			<desc>S3 MAC: 0002.176D.E3D0</desc>
			<rect x="0" y="124.332" width="68.0315" height="8.50394" class="st3"/>
			<text x="4.93" y="129.49" class="st6"><tspan class="st5">S3 MAC: 0002.176D.E3D0</tspan></text>		</g>
		<g id="shape31-43" transform="translate(21.5846,-63.062)">
			<title>Лист.31</title>
			<desc>S1 F0/2: root (FWD)</desc>
			<rect x="0" y="124.332" width="57.5717" height="8.50394" class="st3"/>
			<text x="8.6" y="128.69" class="st6"><tspan class="st5">S1 F0/2: root (FWD)</tspan></text>		</g>
		<g id="shape32-47" transform="translate(83.9469,-101.33)">
			<title>Лист.32</title>
			<desc>S1 F0/4: desg (FWD)</desc>
			<rect x="0" y="124.332" width="57.5717" height="8.50394" class="st3"/>
			<text x="4" y="128.69" class="st6"><tspan class="st5">S1 F0/4: desg (FWD)</tspan></text>		</g>
		<g id="shape33-51" transform="translate(74.5642,-30.4636)">
			<title>Лист.33</title>
			<desc>S2 F0/2: desg (FWD)</desc>
			<rect x="0" y="124.332" width="57.5717" height="8.50394" class="st3"/>
			<text x="7.21" y="128.69" class="st6"><tspan class="st5">S2 F0/2: desg (FWD)</tspan></text>		</g>
		<g id="shape34-55" transform="translate(191.663,-30.4636)">
			<title>Лист.34</title>
			<desc>S2 F0/4: desg (FWD)</desc>
			<rect x="0" y="124.332" width="57.5717" height="8.50394" class="st3"/>
			<text x="4" y="128.69" class="st6"><tspan class="st5">S2 F0/4: desg (FWD)</tspan></text>		</g>
		<g id="shape35-59" transform="translate(201.145,-101.33)">
			<title>Лист.35</title>
			<desc>S3 F0/4: altn (BLK)</desc>
			<rect x="0" y="124.332" width="57.5717" height="8.50394" class="st3"/>
			<text x="12.25" y="128.69" class="st6"><tspan class="st5">S3 F0/4: altn (BLK)</tspan></text>		</g>
		<g id="shape36-63" transform="translate(246.939,-61.6447)">
			<title>Лист.36</title>
			<desc>S3 F0/2: root (FWD)</desc>
			<rect x="0" y="124.332" width="57.5717" height="8.50394" class="st3"/>
			<text x="4" y="128.69" class="st6"><tspan class="st5">S3 F0/2: root (FWD)</tspan></text>		</g>
	</g>
</svg>
